<?xml version="1.0" encoding="UTF-8" standalone="no"?>
<!-- Generator: Adobe Illustrator 23.0.1, SVG Export Plug-In . SVG Version: 6.00 Build 0)  -->

<svg
   xmlns:dc="http://purl.org/dc/elements/1.1/"
   xmlns:cc="http://creativecommons.org/ns#"
   xmlns:rdf="http://www.w3.org/1999/02/22-rdf-syntax-ns#"
   xmlns:svg="http://www.w3.org/2000/svg"
   xmlns="http://www.w3.org/2000/svg"
   xmlns:sodipodi="http://sodipodi.sourceforge.net/DTD/sodipodi-0.dtd"
   xmlns:inkscape="http://www.inkscape.org/namespaces/inkscape"
   version="1.1"
   id="Layer_1"
   x="0px"
   y="0px"
   viewBox="0 0 50.000006 7.4658836"
   xml:space="preserve"
   sodipodi:docname="aramcon-logo.svg"
   width="13.229168mm"
   height="1.9753484mm"
   inkscape:version="0.92.3 (2405546, 2018-03-11)"><metadata
   id="metadata44"><rdf:RDF><cc:Work
       rdf:about=""><dc:format>image/svg+xml</dc:format><dc:type
         rdf:resource="http://purl.org/dc/dcmitype/StillImage" /><dc:title></dc:title></cc:Work></rdf:RDF></metadata><defs
   id="defs42">
			
			
			
			
			
			
			
			
			
			
			
			
			
			
			
		
	

		
	</defs><sodipodi:namedview
   pagecolor="#ffffff"
   bordercolor="#666666"
   borderopacity="1"
   objecttolerance="10"
   gridtolerance="10"
   guidetolerance="10"
   inkscape:pageopacity="0"
   inkscape:pageshadow="2"
   inkscape:window-width="1920"
   inkscape:window-height="1137"
   id="namedview40"
   showgrid="false"
   fit-margin-top="0"
   fit-margin-left="0"
   fit-margin-right="0"
   fit-margin-bottom="0"
   inkscape:zoom="19.070707"
   inkscape:cx="36.511015"
   inkscape:cy="12.449144"
   inkscape:window-x="-8"
   inkscape:window-y="-8"
   inkscape:window-maximized="1"
   inkscape:current-layer="layer2"
   units="mm" />
<style
   type="text/css"
   id="style2">
	.st0{fill:#FEFEFE;}
</style>

<g
   inkscape:groupmode="layer"
   id="layer2"
   inkscape:label="SilkS"><path
     style="stroke-width:0.37795276;stroke-miterlimit:4;stroke-dasharray:none;stroke:none;stroke-opacity:1"
     inkscape:connector-curvature="0"
     id="path6"
     d="m 38.743986,2.10471 c 0.0273,-0.0481 0.0153,-0.093 0.0153,-0.13567 10e-4,-0.38949 -0.001,-0.77899 0.002,-1.16849 0,-0.0427 0.0131,-0.10941 0.0547,-0.11597 0.0722,-0.012 0.15974,-0.0405 0.20241,0.0799 0.0996,0.28009 0.21335,0.5547 0.32494,0.83041 0.18491,0.45733 0.42998,0.89059 0.57659,1.36434 0.0985,0.31947 0.1849,0.64551 0.19366,0.9814 0.0142,0.53391 0.008,1.06783 0.002,1.60175 -0.007,0.64332 -0.26805,1.15755 -0.80962,1.51422 -0.372,0.24508 -0.779,0.38293 -1.23305,0.37527 -0.53829,-0.009 -1.07658,-0.002 -1.61488,-0.002 -0.83369,0 -1.62691,-0.62473 -1.82275,-1.43326 -0.0525,-0.21773 -0.0832,-0.43545 -0.0788,-0.66084 0.012,-0.53282 -0.007,-1.06674 0.0109,-1.60065 0.008,-0.22757 0.0853,-0.43107 0.17396,-0.62911 0.34355,-0.76586 0.66412,-1.54157 0.98797,-2.31619 0.0711,-0.15098 0.17505,-0.14551 0.26368,-0.10284 0,0 0.0274,0.0689 0.0274,0.10394 0.002,0.40262 0.003,0.80525 0,1.20787 -10e-4,0.0897 0.005,0.0919 0.11378,0.0952 0.17725,0.004 0.34902,-0.0175 0.52517,-0.0164 0.39387,0.002 0.79103,-10e-4 1.1849,0 0.30744,-10e-4 0.57549,0.009 0.89934,0.0274 z" /><path
     style="stroke-width:0.37795276;stroke-miterlimit:4;stroke-dasharray:none;stroke:none;stroke-opacity:1"
     inkscape:connector-curvature="0"
     id="path8"
     d="m 21.782286,5.5697 c 0,0.57768 -0.003,1.15536 0.002,1.73304 10e-4,0.10503 -0.0295,0.13129 -0.13129,0.1291 -0.31947,-0.007 -0.638947,-0.007 -0.958422,0 -0.100656,0.002 -0.123632,-0.0284 -0.122538,-0.12472 0.0044,-0.62145 -0.0011,-1.24289 0.0055,-1.86434 0.0011,-0.11269 -0.03282,-0.13457 -0.13895,-0.13457 -0.87965,0.004 -1.7593,0.001 -2.63895,0.004 -0.09409,0 -0.128009,-0.0175 -0.124726,-0.12035 0.0077,-0.30635 0.0077,-0.61269 0,-0.91904 -0.0022,-0.10284 0.02516,-0.1302 0.129103,-0.1302 0.875273,0.004 1.750547,0 2.62582,0.005 0.109409,0.001 0.133479,-0.0241 0.133479,-0.13566 0.0033,-0.5186 -0.289934,-0.78666 -0.84245,-0.80416 -0.480307,-0.0164 -0.962801,-0.003 -1.444202,-0.003 -0.506564,0 -0.839168,0.33369 -0.840262,0.84792 -0.0011,1.08096 -0.0022,2.16192 0.0022,3.24289 0,0.10941 -0.02626,0.13785 -0.135668,0.13566 -0.319474,-0.008 -0.638949,-0.005 -0.958424,-10e-4 -0.08643,10e-4 -0.119256,-0.0131 -0.119256,-0.1116 0.0033,-1.14223 -0.0186,-2.28446 0.0098,-3.42669 0.02079,-0.83151 0.607221,-1.64114 1.549234,-1.81948 0.212254,-0.0405 0.424508,-0.0492 0.63895,-0.0449 0.538293,0.01 1.080962,-0.0536 1.612691,0.0252 1.022976,0.15317 1.647701,0.79431 1.736321,1.74398 0.0449,0.48578 0.009,0.97921 0.009,1.46937 0.001,0.10175 0.001,0.2024 0.001,0.30306 z" /><path
     style="stroke-width:0.37795276;stroke-miterlimit:4;stroke-dasharray:none;stroke:none;stroke-opacity:1"
     inkscape:connector-curvature="0"
     id="path10"
     d="m 9.559087,5.57408 c 0,0.58205 -0.0011,1.16411 0.0022,1.74617 0,0.082 -0.01532,0.11269 -0.106127,0.11159 -0.332604,-0.005 -0.665208,-0.005 -0.997812,0 -0.08643,10e-4 -0.108315,-0.023 -0.108315,-0.10831 0.0033,-0.62582 -0.0011,-1.25164 0.0044,-1.87746 0.0011,-0.10613 -0.02079,-0.13786 -0.13348,-0.13786 -0.879649,0.005 -1.759299,0.001 -2.638949,0.005 -0.110503,0.001 -0.137856,-0.0274 -0.134574,-0.13567 0.0077,-0.30634 0.0066,-0.61269 0,-0.91903 -0.0022,-0.0941 0.02626,-0.11488 0.115974,-0.11379 0.87965,0.003 1.7593,0 2.63895,0.004 0.105033,0 0.147702,-0.0142 0.131291,-0.13348 C 8.316235,3.89927 8.323845,3.78001 8.283415,3.66732 8.191515,3.41239 7.892824,3.21218 7.563502,3.20889 7.016456,3.20189 6.46941,3.20089 5.922364,3.20989 5.527397,3.21689 5.213393,3.59501 5.213393,4.05343 c -0.0022,1.07221 -0.0033,2.14442 0.0022,3.21663 0.0011,0.13129 -0.02954,0.16959 -0.164114,0.16412 -0.315098,-0.0109 -0.630197,-0.007 -0.945295,-0.002 -0.08096,0.001 -0.103939,-0.0219 -0.103939,-0.10285 0.0022,-1.15098 -0.02298,-2.30197 0.0098,-3.45186 0.02407,-0.85229 0.634573,-1.62691 1.539387,-1.79978 0.203501,-0.0394 0.407003,-0.0481 0.612692,-0.047 0.472647,0.002 0.946389,-0.0175 1.417943,0.004 0.929978,0.0438 1.798687,0.56893 1.964989,1.7046 0.02845,0.19693 0.0098,0.40153 0.01094,0.60284 0.0022,0.40919 0.0011,0.81948 0.0011,1.23086 z" /><path
     style="stroke-width:0.37795276;stroke-miterlimit:4;stroke-dasharray:none;stroke:none;stroke-opacity:1"
     inkscape:connector-curvature="0"
     id="path12"
     d="m 10.114886,4.72178 c 0,-0.85339 0.0022,-1.70679 -0.0022,-2.55908 -0.0011,-0.10941 0.02845,-0.13676 0.136762,-0.13567 1.269147,0.004 2.537199,0.001 3.806346,0.003 0.945295,10e-4 1.678337,0.80416 1.618162,1.74727 -0.06127,0.94639 -0.68709,1.37965 -1.401532,1.52297 -0.04267,0.009 -0.08753,0.007 -0.131291,0.007 -0.818381,0 -1.635668,-0.002 -2.454048,0.003 -0.09847,0 -0.123633,-0.023 -0.121444,-0.12144 0.0077,-0.30197 0.0098,-0.60394 -0.0011,-0.90591 -0.0044,-0.12473 0.03939,-0.13895 0.146609,-0.13786 0.743982,0.004 1.487965,0.002 2.230853,0.002 0.373085,0 0.557987,-0.21335 0.503282,-0.57659 -0.03282,-0.21444 -0.19256,-0.35886 -0.447483,-0.36105 -0.866521,-0.007 -1.731948,-0.001 -2.598468,-0.004 -0.110504,0 -0.07549,0.0733 -0.07549,0.12472 -0.0011,0.98469 -0.0011,1.96827 -0.0011,2.95296 0,0.34135 -0.0033,0.68271 0.0022,1.02407 0.0011,0.093 -0.01422,0.1291 -0.119256,0.12582 -0.323851,-0.008 -0.647702,-0.008 -0.971553,0 -0.100657,0.002 -0.122539,-0.0274 -0.121445,-0.12473 0.0033,-0.86214 0.0022,-1.72429 0.0022,-2.58643 z" /><path
     style="stroke-width:0.37795276;stroke-miterlimit:4;stroke-dasharray:none;stroke:none;stroke-opacity:1"
     inkscape:connector-curvature="0"
     id="path14"
     d="m 32.075496,7.42966 c -0.53829,0 -1.07658,-0.003 -1.61378,10e-4 -1.0569,0.008 -1.63676,-0.59081 -1.91466,-1.37637 -0.0657,-0.18599 -0.0974,-0.37855 -0.0963,-0.57877 0.003,-0.49016 0.001,-0.98031 0.001,-1.46937 0,-0.92779 0.50656,-1.60722 1.39716,-1.87527 0.22757,-0.0678 0.45951,-0.10285 0.69693,-0.10285 1.1116,10e-4 2.2221,10e-4 3.3337,-0.001 0.0974,0 0.13567,0.0164 0.13239,0.12582 -0.009,0.31072 -0.008,0.62144 0,0.93217 0.002,0.10284 -0.0317,0.12035 -0.12583,0.11925 -1.10722,-0.003 -2.21334,-0.003 -3.32056,-0.001 -0.25055,0 -0.48359,0.0645 -0.67725,0.23632 -0.14551,0.12911 -0.2221,0.28884 -0.221,0.48469 0.001,0.52078 -0.003,1.04157 0.001,1.56126 0.003,0.44092 0.34355,0.77134 0.78556,0.77134 1.14223,0 2.28337,0.001 3.4256,-0.002 0.0985,0 0.13457,0.0175 0.13239,0.12582 -0.009,0.31072 -0.008,0.62145 0,0.93217 0.002,0.10394 -0.0328,0.12035 -0.12583,0.11925 -0.60284,-0.004 -1.20678,-0.002 -1.81072,-0.002 z" /><path
     style="stroke-width:0.37795276;stroke-miterlimit:4;stroke-dasharray:none;stroke:none;stroke-opacity:1"
     inkscape:connector-curvature="0"
     id="path16"
     d="m 27.891686,5.56095 c 0,0.58205 -0.002,1.16411 0.002,1.74617 0.001,0.0941 -0.0164,0.12801 -0.12035,0.12582 -0.32385,-0.008 -0.6477,-0.008 -0.97155,0 -0.10175,0.002 -0.12144,-0.0306 -0.12035,-0.12582 0.003,-1.09847 0.002,-2.19694 0.002,-3.29541 0,-0.45952 -0.32385,-0.79759 -0.78556,-0.80306 -0.52516,-0.007 -1.05033,-0.005 -1.57549,0 -0.44967,0.004 -0.77134,0.35558 -0.77134,0.83807 -0.002,1.07659 -0.003,2.15318 0.002,3.22976 0.001,0.12582 -0.0273,0.16193 -0.15645,0.15755 -0.3151,-0.0109 -0.6302,-0.005 -0.9453,-0.002 -0.081,10e-4 -0.11269,-0.0142 -0.1116,-0.10612 0.003,-1.15099 -0.0295,-2.30307 0.012,-3.45186 0.035,-0.99344 0.75054,-1.70897 1.65755,-1.81182 0.71225,-0.081 1.43763,-0.0864 2.1477,0 0.80087,0.0974 1.39606,0.52735 1.65864,1.33042 0.0525,0.16192 0.0777,0.33041 0.0766,0.50328 -0.002,0.55361 -10e-4,1.10941 -10e-4,1.66521 z" /><path
     style="stroke-width:0.37795276;stroke-miterlimit:4;stroke-dasharray:none;stroke:none;stroke-opacity:1"
     inkscape:connector-curvature="0"
     id="path18"
     d="m 46.228676,5.5697 c 0,0.57768 -0.002,1.15536 0.002,1.73304 10e-4,0.10394 -0.0273,0.13239 -0.13019,0.1302 -0.31948,-0.007 -0.63895,-0.007 -0.95843,0 -0.0996,0.002 -0.12363,-0.0263 -0.12363,-0.12363 0.003,-1.09847 0.002,-2.19585 0.002,-3.29432 0,-0.46389 -0.31182,-0.79649 -0.7779,-0.80525 -0.53392,-0.01 -1.06784,-0.009 -1.60175,0 -0.44749,0.007 -0.75821,0.36871 -0.75821,0.86652 -10e-4,1.07221 -0.002,2.14442 0.002,3.21554 10e-4,0.11707 -0.0285,0.14442 -0.14333,0.14114 -0.31947,-0.009 -0.63895,-0.005 -0.95842,-0.001 -0.0799,0.001 -0.11269,-0.0131 -0.1116,-0.10503 0.003,-1.13785 -0.0284,-2.27571 0.0109,-3.41247 0.0383,-1.10394 0.9081,-1.88293 1.90263,-1.88512 0.56017,-10e-4 1.12144,-0.0241 1.67943,0.005 1.03063,0.0547 1.83042,0.65536 1.95077,1.72538 0.0459,0.41029 0.01,0.83042 0.0109,1.24617 0.002,0.18709 0.002,0.37528 0.002,0.56346 z" /><path
     style="stroke-width:0.37795276;stroke-miterlimit:4;stroke-dasharray:none;stroke:none;stroke-opacity:1"
     inkscape:connector-curvature="0"
     id="path20"
     d="m 47.179436,7.38589 c -0.10066,0 -0.20131,-0.007 -0.30197,0.002 -0.0853,0.007 -0.0996,-0.0131 -0.0985,-0.10394 0.005,-0.0558 -10e-4,-0.0821 0,-0.17068 -10e-4,-0.7024 -0.093,-0.35995 0.35011,-0.83479 0.42342,-0.37855 0.8151,-0.79322 1.2232,-1.18818 0.0514,-0.0503 0.035,-0.0722 -0.005,-0.1116 -0.49344,-0.48359 -0.98469,-0.97046 -1.47922,-1.45186 -0.0613,-0.0602 -0.0919,-0.11707 -0.0886,-0.2035 0.005,-0.17943 0.004,-0.35886 10e-4,-0.53829 -10e-4,-0.0602 0.0131,-0.0853 0.0799,-0.0832 0.21881,0.004 0.43763,0.003 0.65645,0 0.0569,-10e-4 0.0864,0.0317 0.12145,0.0646 0.51531,0.4989 1.03172,0.99671 1.54704,1.49453 0.2418,0.23413 0.4814,0.47155 0.72648,0.7024 0.0547,0.0514 0.0733,0.0777 0.009,0.14005 -0.76477,0.73851 -1.52626,1.47921 -2.28774,2.21991 -0.0755,0.0656 -0.0438,0.0656 -0.16193,0.0645 -0.0985,-0.007 -0.19475,-0.002 -0.29103,-0.002 z" /><path
     style="stroke-width:0.37795276;stroke-miterlimit:4;stroke-dasharray:none;stroke:none;stroke-opacity:1"
     inkscape:connector-curvature="0"
     id="path22"
     d="M 2.778999,7.38589 C 2.421231,7.40559 2.437643,7.34319 2.192566,7.13206 1.603945,6.54563 1.002194,5.97233 0.405914,5.39355 0.311824,5.30165 0.221013,5.20646 0.122544,5.12112 0.056894,5.06422 0.049244,5.02812 0.118144,4.96138 0.658625,4.44388 1.19473,3.922 1.731929,3.4023 1.94856,3.19224 2.167378,2.98436 2.380726,2.77211 c 0.05033,-0.0503 0.101751,-0.0711 0.172867,-0.0689 0.196936,0.004 0.393873,0.004 0.590809,0 0.06783,-10e-4 0.09081,0.0153 0.08862,0.0864 -0.0044,0.19694 -0.0055,0.39387 0,0.59081 0.0022,0.0657 -0.02954,0.10394 -0.07112,0.14442 -0.479213,0.46718 -0.955143,0.93764 -1.438731,1.40044 -0.093,0.0886 -0.100657,0.13457 -0.0022,0.22866 0.4814,0.45952 0.952954,0.92779 1.429978,1.3906 0.05799,0.0558 0.08424,0.11159 0.08096,0.19365 -0.0066,0.18818 -0.0055,0.37637 0,0.56455 0.0022,0.07 -0.0186,0.0908 -0.08753,0.0864 -0.105033,-0.008 -0.210066,-0.003 -0.365427,-0.003 z" /><path
     style="stroke-width:0.37795276;stroke-miterlimit:4;stroke-dasharray:none;stroke:none;stroke-opacity:1"
     inkscape:connector-curvature="0"
     id="path24"
     d="m 24.521886,5.43841 c 0,-0.62582 0.002,-1.25164 -0.002,-1.87746 -0.001,-0.0908 0.0219,-0.11817 0.11488,-0.11598 0.32385,0.005 0.64771,0.005 0.97156,0 0.0875,-10e-4 0.10831,0.0252 0.10831,0.10941 -0.002,1.25602 -0.003,2.51094 0,3.76696 0,0.0853 -0.0208,0.1116 -0.10831,0.10941 -0.32385,-0.005 -0.64771,-0.005 -0.97156,0 -0.093,0.002 -0.11488,-0.0263 -0.11488,-0.11707 0.004,-0.62472 0.002,-1.25055 0.002,-1.87527 z" /><path
     style="stroke-width:0.37795276;stroke-miterlimit:4;stroke-dasharray:none;stroke:none;stroke-opacity:1"
     inkscape:connector-curvature="0"
     id="path26"
     d="m 13.020794,6.48764 c 0,-0.27133 0.0022,-0.54267 -0.0011,-0.81291 -0.0011,-0.0777 0.0088,-0.11488 0.102844,-0.11269 0.332604,0.007 0.664114,0.005 0.996718,0.001 0.07987,-0.001 0.102845,0.0186 0.102845,0.10066 -0.0033,0.55471 -0.0033,1.1105 0,1.66521 0,0.0821 -0.02626,0.10284 -0.105033,0.10175 -0.332604,-0.004 -0.664114,-0.004 -0.996718,0 -0.08315,0.001 -0.10175,-0.0252 -0.100656,-0.10394 0.0033,-0.27899 0.0011,-0.55908 0.0011,-0.83917 z" /><path
     style="fill:#fefefe;stroke-width:0.37795276;stroke-miterlimit:4;stroke-dasharray:none;stroke:none;stroke-opacity:1"
     inkscape:connector-curvature="0"
     id="path28"
     d="m 37.321666,6.25241 c -0.24945,0 -0.4989,-0.012 -0.74726,0.003 -0.38403,0.023 -0.78556,-0.28775 -0.79431,-0.76696 -0.009,-0.52079 -0.009,-1.04048 0,-1.56127 0.007,-0.38622 0.34573,-0.70788 0.76258,-0.71663 0.55033,-0.012 1.10175,-0.01 1.65317,-10e-4 0.37199,0.007 0.69913,0.34683 0.7046,0.73086 0.008,0.55142 0.008,1.10175 0,1.65317 -0.004,0.34573 -0.35558,0.65317 -0.73961,0.65864 -0.27899,0.003 -0.55908,0 -0.83917,0 z"
     class="st0" /><path
     style="stroke-width:0.37795276;stroke-miterlimit:4;stroke-dasharray:none;stroke:none;stroke-opacity:1"
     inkscape:connector-curvature="0"
     id="path30"
     d="m 38.364336,4.08392 c 0,0.13129 -0.003,0.26258 10e-4,0.39388 0.003,0.0711 -0.0131,0.0996 -0.0919,0.0963 -0.16192,-0.007 -0.32385,-0.004 -0.48577,0 -0.07,0.002 -0.10066,-0.012 -0.0996,-0.0919 0.003,-0.27133 0.002,-0.54267 -0.002,-0.814 -10e-4,-0.0744 0.023,-0.0985 0.0974,-0.0952 0.16193,0.005 0.32385,0.008 0.48578,-10e-4 0.0886,-0.004 0.0985,0.0317 0.0963,0.10503 -0.005,0.13457 -0.001,0.27134 -0.001,0.407 z" /><path
     style="stroke-width:0.37795276;stroke-miterlimit:4;stroke-dasharray:none;stroke:none;stroke-opacity:1"
     inkscape:connector-curvature="0"
     id="path32"
     d="m 37.060186,4.08611 c 0,0.13567 -0.0208,0.28775 -0.0142,0.42341 0.003,0.0635 -0.0142,0.0657 -0.0788,0.0646 -0.17834,-0.004 -0.31401,-0.004 -0.49234,-10e-4 -0.0624,10e-4 -0.0821,-0.0164 -0.081,-0.0799 0.003,-0.27899 0.003,-0.55908 0,-0.83807 -0.001,-0.0591 0.0109,-0.0842 0.0777,-0.0832 0.16959,0.004 0.34027,0.004 0.51094,0 0.0657,-0.002 0.081,0.0219 0.0799,0.0821 -0.004,0.14442 -0.002,0.28775 -0.002,0.43217 0.009,0 0,0 0,0 z" /></g></svg>