<?xml version="1.0" encoding="UTF-8" standalone="no"?>
<!-- Created with Inkscape (http://www.inkscape.org/) -->

<svg
   xmlns:dc="http://purl.org/dc/elements/1.1/"
   xmlns:cc="http://creativecommons.org/ns#"
   xmlns:rdf="http://www.w3.org/1999/02/22-rdf-syntax-ns#"
   xmlns:svg="http://www.w3.org/2000/svg"
   xmlns="http://www.w3.org/2000/svg"
   xmlns:sodipodi="http://sodipodi.sourceforge.net/DTD/sodipodi-0.dtd"
   xmlns:inkscape="http://www.inkscape.org/namespaces/inkscape"
   width="50mm"
   height="6.73596mm"
   viewBox="0 0 50 6.73596"
   version="1.1"
   id="svg1440"
   inkscape:version="0.92.3 (2405546, 2018-03-11)"
   sodipodi:docname="aramcon-logo.svg">
  <sodipodi:namedview
     id="base"
     pagecolor="#ffffff"
     bordercolor="#666666"
     borderopacity="1.0"
     inkscape:pageopacity="0.0"
     inkscape:pageshadow="2"
     inkscape:zoom="2.8"
     inkscape:cx="422.79355"
     inkscape:cy="13.180613"
     inkscape:document-units="mm"
     inkscape:current-layer="layer1"
     showgrid="false"
     fit-margin-top="0"
     fit-margin-left="0"
     fit-margin-right="0"
     fit-margin-bottom="0"
     inkscape:window-width="1920"
     inkscape:window-height="1137"
     inkscape:window-x="-8"
     inkscape:window-y="-8"
     inkscape:window-maximized="1" />
  <defs
     id="defs1434" />
  <metadata
     id="metadata1437">
    <rdf:RDF>
      <cc:Work
         rdf:about="">
        <dc:format>image/svg+xml</dc:format>
        <dc:type
           rdf:resource="http://purl.org/dc/dcmitype/StillImage" />
        <dc:title></dc:title>
      </cc:Work>
    </rdf:RDF>
  </metadata>
  <g
     transform="translate(130.81756,-107.75919)"
     id="layer1"
     inkscape:groupmode="layer"
     inkscape:label="SilkS">
    <path
       style="fill:#000000;stroke-width:0.02889339"
       d="m -126.82546,114.47538 -0.0193,-1.83011 0.008,-1.58098 0.0172,-0.28943 0.032,-0.16898 0.0711,-0.22476 0.0962,-0.21487 0.11864,-0.20179 0.13842,-0.18551 0.15552,-0.16601 0.16994,-0.14333 0.18169,-0.11744 0.19076,-0.0884 0.25284,-0.081 0.28243,-0.0435 0.42303,-0.0151 0.67462,0.004 0.91894,0.0209 0.20912,0.0207 0.16195,0.0346 0.23753,0.0739 0.21622,0.0942 0.1955,0.11509 0.17539,0.13647 0.15585,0.15839 0.1369,0.18081 0.11855,0.20377 0.10078,0.22724 0.0936,0.24318 0.008,1.92863 0.008,1.92863 h -0.59329 -0.59329 v -1.05461 -1.05461 h -1.44467 -1.44467 v -0.57786 -0.57787 h 1.42782 l 1.11185,-0.007 0.24709,-0.0103 0.08,-0.0156 -0.002,-0.11408 -0.0312,-0.18957 -0.0459,-0.19328 -0.0462,-0.1252 -0.092,-0.0941 -0.15857,-0.0946 -0.19255,-0.0948 -1.00258,-0.009 -0.8796,6.1e-4 -0.15328,0.0168 -0.0867,0.0334 -0.12218,0.0772 -0.10568,0.098 -0.0875,0.11684 -0.0677,0.13385 -0.0678,0.16792 -0.008,1.78417 -0.008,1.78416 h -0.57181 l -0.59108,-0.0193 v 0"
       id="path5737"
       inkscape:connector-curvature="0" />
    <path
       style="fill:#000000;stroke-width:0.02889339"
       d="m -120.71932,111.80756 v -2.68709 l 1.59636,-0.007 2.28519,-1.1e-4 0.34226,0.0247 0.18863,0.0515 0.3086,0.13344 0.27413,0.18357 0.22687,0.22332 0.0917,0.12332 0.0751,0.12937 0.0554,0.13606 0.043,0.15882 0.0474,0.35878 -0.007,0.36838 -0.0246,0.17082 -0.0393,0.15285 -0.0723,0.17832 -0.0941,0.16398 -0.11515,0.14897 -0.13537,0.13325 -0.1548,0.11685 -0.1734,0.0997 -0.19122,0.082 -0.20822,0.0635 -0.15197,0.0266 -0.25029,0.0171 -1.12187,0.0192 -1.32187,0.0125 v -0.58015 -0.58015 h 1.23811 l 0.76929,-0.003 0.42487,-0.0163 0.20577,-0.041 0.112,-0.0772 0.0715,-0.0923 0.0414,-0.10985 0.0131,-0.11951 -0.0136,-0.12123 -0.0384,-0.11501 -0.0616,-0.10086 -0.083,-0.0788 -0.10259,-0.0487 -0.44827,-0.0217 -1.03788,-0.008 -1.37966,-1.1e-4 v 2.10922 2.10922 h -0.59232 -0.59231 v -2.68714"
       id="path5735"
       inkscape:connector-curvature="0" />
    <path
       style="fill:#000000;stroke-width:0.02889339"
       d="m -117.80109,113.57005 v -0.92459 h 0.57787 0.57787 v 0.92459 0.92459 h -0.57787 -0.57787 v -0.92459"
       id="path5733"
       inkscape:connector-curvature="0" />
    <path
       style="fill:#000000;stroke-width:0.02889339"
       d="m -114.59342,112.66714 0.003,-1.17984 0.0207,-0.64914 0.0222,-0.19541 0.0329,-0.14658 0.10669,-0.25842 0.0962,-0.18063 0.1102,-0.16668 0.12362,-0.15217 0.13645,-0.13711 0.14865,-0.12149 0.16026,-0.10534 0.17125,-0.0886 0.18165,-0.0714 0.14988,-0.0449 0.18224,-0.0241 0.93361,-0.0186 0.81974,7.6e-4 0.42086,0.021 0.34727,0.0829 0.3387,0.13287 0.29869,0.16802 0.12452,0.0926 0.10273,0.0958 0.1229,0.15156 0.12091,0.18504 0.10731,0.19898 0.0821,0.19339 0.067,0.18781 0.008,1.92863 0.008,1.92864 h -0.5931 -0.5931 v -1.05461 -1.05461 l -0.0939,-0.005 -1.45189,-0.007 -1.35799,-0.003 v -0.56342 -0.56343 l 1.44156,-0.007 1.44155,-0.007 -0.0158,-0.2309 -0.0424,-0.24828 -0.0401,-0.10018 -0.0542,-0.0861 -0.0695,-0.0736 -0.0859,-0.0625 -0.2255,-0.0974 -0.12064,-0.0286 -0.17616,-0.0163 -0.78792,-0.009 -0.70838,0.008 -0.31314,0.0246 -0.11108,0.0479 -0.10114,0.0727 -0.0875,0.0942 -0.07,0.11236 -0.0845,0.20109 -0.0439,0.29518 -0.0166,0.58365 -0.003,1.06651 -3.4e-4,1.71194 h -0.59231 -0.59232 l 5e-4,-1.82751 v -1e-5"
       id="path5731"
       inkscape:connector-curvature="0" />
    <path
       style="fill:#000000;stroke-width:0.02889339"
       d="m -108.46853,112.65686 0.002,-1.19115 0.0224,-0.63899 0.0257,-0.19125 0.0391,-0.14778 0.12961,-0.29123 0.0922,-0.16945 0.10731,-0.15828 0.12117,-0.14602 0.13378,-0.13262 0.14515,-0.11811 0.15527,-0.10249 0.16417,-0.0858 0.17182,-0.0679 0.15186,-0.0457 0.17918,-0.0245 0.90147,-0.0187 0.68726,-2e-4 0.47489,0.0204 0.34238,0.0477 0.2897,0.0817 0.20008,0.0843 0.18883,0.10861 0.17504,0.13023 0.15871,0.14918 0.13981,0.16543 0.11838,0.17899 0.0944,0.18988 0.0678,0.19806 0.0265,0.15904 0.0164,0.31722 0.0171,1.62305 0.0106,1.91418 h -0.59383 -0.59383 v -1.7717 l -0.008,-1.48008 -0.0135,-0.30009 -0.023,-0.14164 -0.076,-0.17098 -0.11697,-0.13927 -0.15743,-0.10715 -0.19744,-0.0746 -0.34097,-0.0236 -0.70588,-0.0118 -0.93144,-0.005 -0.1594,0.078 -0.12129,0.0753 -0.10117,0.0993 -0.0848,0.12792 -0.0722,0.16109 -0.0299,0.12413 -0.0173,0.26553 -0.0152,1.52453 -0.008,1.76972 h -0.59127 -0.59126 l 1e-5,-1.83778"
       id="path5729"
       inkscape:connector-curvature="0" />
    <path
       style="fill:#000000;stroke-width:0.02889339"
       d="m -106.27263,112.51544 v -1.97919 h 0.57787 0.57787 v 1.97919 1.9792 h -0.57787 -0.57787 v -1.9792"
       id="path5727"
       inkscape:connector-curvature="0" />
    <path
       style="fill:#000000;stroke-width:0.02889339"
       d="m -100.7939,114.44833 -0.20554,-0.0469 -0.1895,-0.0639 -0.17468,-0.0818 -0.16107,-0.1006 -0.14867,-0.12024 -0.1375,-0.14075 -0.12754,-0.16211 -0.11879,-0.18436 -0.10149,-0.20343 -0.084,-0.21627 -0.0411,-0.14784 -0.0212,-0.18836 -0.009,-0.97845 0.005,-0.71345 0.0213,-0.44122 0.0475,-0.27331 0.0837,-0.20973 0.0992,-0.17135 0.1221,-0.16094 0.14313,-0.14913 0.16229,-0.13589 0.17956,-0.12126 0.19496,-0.10519 0.20848,-0.0877 0.22012,-0.0688 0.20696,-0.0409 0.35825,-0.0206 2.014133,-5.3e-4 1.452505,0.007 -0.0078,0.57065 -0.0078,0.57064 -1.849176,0.0151 -1.439612,0.0196 -0.50591,0.0297 -0.13031,0.0564 -0.11803,0.0713 -0.1003,0.0824 -0.0771,0.0896 -0.0846,0.1221 -0.008,0.96685 -0.001,0.65019 0.023,0.36941 0.0262,0.11635 0.039,0.0905 0.12542,0.16248 0.0747,0.0833 0.073,0.0616 0.10152,0.0431 0.16034,0.0277 0.618259,0.0221 1.216848,-8.8e-4 1.870846,-0.005 v 0.57933 0.57934 l -1.885293,-0.003 -1.54971,-0.0104 -0.36728,-0.013 -0.19602,-0.0203 h 1e-5"
       id="path5725"
       inkscape:connector-curvature="0" />
    <path
       id="path5721"
       style="fill:#000000;stroke-width:0.02889339"
       d="m -92.251912,113.24281 0.139353,-0.0864 0.101454,-0.0929 0.08701,-0.14296 0.04795,-0.19852 0.01993,-0.34211 0.003,-0.57371 -0.0095,-0.65081 -0.01961,-0.32537 -0.07227,-0.16766 -0.111386,-0.14623 -0.143848,-0.11792 -0.169662,-0.0827 -0.10958,-0.0287 -0.166497,-0.0159 -0.773946,-0.007 -0.791232,0.0108 -0.15662,0.0194 -0.111007,0.0358 -0.152574,0.0771 -0.13758,0.10188 -0.110281,0.11581 -0.07068,0.11894 -0.0497,0.20626 -0.02931,0.30773 -0.0078,0.38899 0.0147,0.45002 0.06063,0.67899 0.04466,0.12848 0.06376,0.11918 0.07626,0.0996 0.08215,0.0696 0.153354,0.0822 0.192615,0.0424 0.345522,0.0147 0.612072,-9.8e-4 0.982374,-0.006 0.16634,-0.0816 m -2.506712,1.19045 -0.226048,-0.0775 -0.211609,-0.0996 -0.195029,-0.11981 -0.176307,-0.13814 -0.155446,-0.15457 -0.132442,-0.16912 -0.1073,-0.18178 -0.08001,-0.19255 -0.07992,-0.2799 -0.04784,-0.30598 -0.02493,-0.42409 -0.01119,-0.63422 -0.0093,-0.97495 0.08145,-0.23857 0.261999,-0.62863 0.422757,-0.95015 0.331271,-0.7979 0.110136,-0.28893 0.117671,-0.009 0.117668,-0.009 v 0.70924 0.70923 l 0.267264,-0.0213 1.141203,-0.0208 1.148598,0.0139 0.202254,0.0144 0.0077,-0.70238 0.0077,-0.70238 0.101849,0.009 0.101847,0.009 0.09946,0.29701 0.151937,0.38138 0.225632,0.49986 0.385902,0.86913 0.101291,0.28882 0.04595,0.20642 0.06722,0.39982 0.03867,0.47608 0.013,0.74203 -0.01272,0.72334 -0.01603,0.26571 -0.02249,0.15431 -0.06616,0.19021 -0.08201,0.17849 -0.09722,0.16599 -0.111777,0.15268 -0.125684,0.13858 -0.138942,0.12369 -0.151551,0.10798 -0.163509,0.0915 -0.329764,0.13777 -0.170103,0.0462 -0.191808,0.0336 -0.503405,0.0365 -0.754247,0.008 -0.832058,-0.0105 -0.187089,-0.0174 -0.136589,-0.0308 3.2e-5,2e-5"
       inkscape:connector-curvature="0" />
    <path
       style="fill:#000000;stroke-width:0.02889339"
       d="m -94.368554,111.14301 v -0.49119 h 0.317827 0.317827 l 3.27e-4,0.25282 0.01873,0.49119 0.01856,0.23837 h -0.336556 -0.336556 v -0.49119 h -1.1e-4"
       id="path5719"
       inkscape:connector-curvature="0" />
    <path
       style="fill:#000000;stroke-width:0.02889339"
       d="m -93.076064,111.52585 -0.01038,-0.48397 0.0036,-0.37561 0.325051,-0.008 0.32505,-0.008 v 0.49213 0.49214 h -0.314666 -0.314666 l -0.01403,-0.10835"
       id="path5717"
       inkscape:connector-curvature="0" />
    <path
       style="fill:#000000;stroke-width:0.02889339"
       d="m -90.086104,112.60935 0.0082,-1.8853 0.106715,-0.2844 0.110646,-0.25502 0.116166,-0.21373 0.149361,-0.1957 0.181801,-0.18531 0.197701,-0.15987 0.197064,-0.11939 0.253647,-0.10721 0.289454,-0.0573 0.450094,-0.0207 0.735562,0.003 0.950691,0.0199 0.211968,0.0202 0.159133,0.0339 0.211939,0.0656 0.195309,0.0825 0.17885,0.0996 0.162558,0.1168 0.146435,0.13414 0.13048,0.15162 0.114694,0.16923 0.09908,0.18697 0.10785,0.25695 0.03273,0.13993 0.02164,0.18768 0.01919,0.63882 0.0023,1.19058 v 1.872 h -0.592315 -0.592314 v -1.7988 l -0.0077,-1.33304 -0.02049,-0.56419 -0.05203,-0.12833 -0.07819,-0.11045 -0.106206,-0.0946 -0.136065,-0.0808 -0.19035,-0.0937 -0.910763,-0.0198 -0.655714,-0.008 -0.384143,0.0238 -0.12372,0.0292 -0.09601,0.0435 -0.0817,0.06 -0.08078,0.0786 -0.0764,0.093 -0.05932,0.11416 -0.04439,0.1569 -0.03161,0.22121 -0.03346,0.72165 -0.0081,1.23775 -0.0011,1.45189 h -0.593309 -0.593308 l 0.0082,-1.88529"
       id="path5715"
       inkscape:connector-curvature="0" />
    <path
       style="fill:#000000;stroke-width:0.02889339"
       d="m -128.6448,114.21602 -0.94592,-0.91824 -0.95348,-0.92201 -0.27336,-0.25524 0.4347,-0.42375 1.20348,-1.16861 0.76879,-0.74487 0.38565,0.008 0.38565,0.008 0.008,0.35323 0.008,0.35323 -0.65821,0.64336 -0.81242,0.79863 -0.12328,0.12926 -0.0259,0.0412 0.80986,0.81274 0.80985,0.78964 -0.008,0.36528 -0.008,0.36528 -0.36985,0.008 -0.36986,0.008 -0.2658,-0.25149"
       id="path5713"
       inkscape:connector-curvature="0" />
    <path
       style="fill:#000000;stroke-width:0.02889339"
       d="m -83.947672,114.44649 -0.01926,-0.37199 v -0.35273 l 0.81091,-0.79856 0.81091,-0.79857 -0.527342,-0.54791 -0.425178,-0.42975 -0.281707,-0.26383 -0.284448,-0.26179 -0.104908,-0.11612 0.0081,-0.35289 0.0081,-0.35288 0.386608,-0.008 0.38661,-0.008 0.364617,0.35452 0.913596,0.88934 0.816237,0.78852 0.188756,0.19033 0.07851,0.10135 -0.09372,0.11115 -0.327464,0.33006 -1.633975,1.59165 -0.335998,0.32554 h -0.35985 l -0.379109,-0.0193 3e-6,1e-5"
       id="path5699"
       inkscape:connector-curvature="0" />
  </g>
</svg>
