  0
SECTION
  2
HEADER
  9
$ACADVER
  1
AC1014
  9
$HANDSEED
  5
FFFF
  9
$MEASUREMENT
 70
     1
  0
ENDSEC
  0
SECTION
  2
TABLES
  0
TABLE
  2
VPORT
  5
8
330
0
100
AcDbSymbolTable
 70
     4
  0
VPORT
  5
2E
330
8
100
AcDbSymbolTableRecord
100
AcDbViewportTableRecord
  2
*ACTIVE
 70
     0
 10
0.0
 20
0.0
 11
1.0
 21
1.0
 12
210.0
 22
148.5
 13
0.0
 23
0.0
 14
10.0
 24
10.0
 15
10.0
 25
10.0
 16
0.0
 26
0.0
 36
1.0
 17
0.0
 27
0.0
 37
0.0
 40
341.0
 41
1.24
 42
50.0
 43
0.0
 44
0.0
 50
0.0
 51
0.0
 71
     0
 72
   100
 73
     1
 74
     3
 75
     0
 76
     0
 77
     0
 78
     0
  0
ENDTAB
  0
TABLE
  2
LTYPE
  5
5
330
0
100
AcDbSymbolTable
 70
     1
  0
LTYPE
  5
14
330
5
100
AcDbSymbolTableRecord
100
AcDbLinetypeTableRecord
  2
BYBLOCK
 70
     0
  3

 72
    65
 73
     0
 40
0.0
  0
LTYPE
  5
15
330
5
100
AcDbSymbolTableRecord
100
AcDbLinetypeTableRecord
  2
BYLAYER
 70
     0
  3

 72
    65
 73
     0
 40
0.0
  0
LTYPE
  5
16
330
5
100
AcDbSymbolTableRecord
100
AcDbLinetypeTableRecord
  2
CONTINUOUS
 70
     0
  3
Solid line
 72
    65
 73
     0
 40
0.0
  0
ENDTAB
  0
TABLE
  2
LAYER
  5
2
100
AcDbSymbolTable
 70
2
  0
LAYER
  5
50
100
AcDbSymbolTableRecord
100
AcDbLayerTableRecord
  2
0
 70
0
  6
CONTINUOUS
  0
LAYER
  5
51
100
AcDbSymbolTableRecord
100
AcDbLayerTableRecord
  2
Layer_1
 70
0
  6
CONTINUOUS
  0
ENDTAB
  0
TABLE
  2
STYLE
  5
3
330
0
100
AcDbSymbolTable
 70
     1
  0
STYLE
  5
11
330
3
100
AcDbSymbolTableRecord
100
AcDbTextStyleTableRecord
  2
STANDARD
 70
     0
 40
0.0
 41
1.0
 50
0.0
 71
     0
 42
2.5
  3
txt
  4

  0
ENDTAB
  0
TABLE
  2
VIEW
  5
6
330
0
100
AcDbSymbolTable
 70
     0
  0
ENDTAB
  0
TABLE
  2
UCS
  5
7
330
0
100
AcDbSymbolTable
 70
     0
  0
ENDTAB
  0
TABLE
  2
APPID
  5
9
330
0
100
AcDbSymbolTable
 70
     2
  0
APPID
  5
12
330
9
100
AcDbSymbolTableRecord
100
AcDbRegAppTableRecord
  2
ACAD
 70
     0
  0
ENDTAB
  0
TABLE
  2
DIMSTYLE
  5
A
330
0
100
AcDbSymbolTable
 70
     1
  0
DIMSTYLE
105
27
330
A
100
AcDbSymbolTableRecord
100
AcDbDimStyleTableRecord
  2
ISO-25
 70
     0
  3

  4

  5

  6

  7

 40
1.0
 41
2.5
 42
0.625
 43
3.75
 44
1.25
 45
0.0
 46
0.0
 47
0.0
 48
0.0
140
2.5
141
2.5
142
0.0
143
0.03937007874016
144
1.0
145
0.0
146
1.0
147
0.625
 71
     0
 72
     0
 73
     0
 74
     0
 75
     0
 76
     0
 77
     1
 78
     8
170
     0
171
     3
172
     1
173
     0
174
     0
175
     0
176
     0
177
     0
178
     0
270
     2
271
     2
272
     2
273
     2
274
     3
340
11
275
     0
280
     0
281
     0
282
     0
283
     0
284
     8
285
     0
286
     0
287
     3
288
     0
  0
ENDTAB
  0
TABLE
  2
BLOCK_RECORD
  5
1
330
0
100
AcDbSymbolTable
 70
     1
  0
BLOCK_RECORD
  5
1F
330
1
100
AcDbSymbolTableRecord
100
AcDbBlockTableRecord
  2
*MODEL_SPACE
  0
BLOCK_RECORD
  5
1B
330
1
100
AcDbSymbolTableRecord
100
AcDbBlockTableRecord
  2
*PAPER_SPACE
  0
ENDTAB
  0
ENDSEC
  0
SECTION
  2
BLOCKS
  0
BLOCK
  5
20
330
1F
100
AcDbEntity
  8
0
100
AcDbBlockBegin
  2
*MODEL_SPACE
 70
     0
 10
0.0
 20
0.0
 30
0.0
  3
*MODEL_SPACE
  1

  0
ENDBLK
  5
21
330
1F
100
AcDbEntity
  8
0
100
AcDbBlockEnd
  0
BLOCK
  5
1C
330
1B
100
AcDbEntity
 67
     1
  8
0
100
AcDbBlockBegin
  2
*PAPER_SPACE
  1

  0
ENDBLK
  5
1D
330
1B
100
AcDbEntity
 67
     1
  8
0
100
AcDbBlockEnd
  0
ENDSEC
  0
SECTION
  2
ENTITIES
  0
LWPOLYLINE
  5
100
100
AcDbEntity
  8
Layer_1
 62
7
100
AcDbPolyline
 90
130
 70
1
 10
62.349804
 20
99.629704
 30
0.0
 10
62.004361
 20
99.612200
 30
0.0
 10
61.661539
 20
99.548218
 30
0.0
 10
60.995587
 20
99.307060
 30
0.0
 10
19.346442
 20
99.307060
 30
0.0
 10
18.531860
 20
99.426343
 30
0.0
 10
18.119764
 20
99.454350
 30
0.0
 10
17.717204
 20
99.421501
 30
0.0
 10
17.333735
 20
99.297974
 30
0.0
 10
16.978910
 20
99.053944
 30
0.0
 10
16.662285
 20
98.659588
 30
0.0
 10
16.393413
 20
98.085081
 30
0.0
 10
15.259687
 20
95.021599
 30
0.0
 10
14.068722
 20
91.980365
 30
0.0
 10
11.642217
 20
85.901103
 30
0.0
 10
10.576009
 20
83.395377
 30
0.0
 10
9.456904
 20
80.911139
 30
0.0
 10
7.166588
 20
75.965750
 30
0.0
 10
6.048673
 20
73.483910
 30
0.0
 10
4.984450
 20
70.982180
 30
0.0
 10
4.000567
 20
68.450217
 30
0.0
 10
3.123671
 20
65.877674
 30
0.0
 10
2.100781
 20
62.326356
 30
0.0
 10
1.640061
 20
60.540160
 30
0.0
 10
1.227469
 20
58.746408
 30
0.0
 10
0.873738
 20
56.944702
 30
0.0
 10
0.589603
 20
55.134643
 30
0.0
 10
0.385797
 20
53.315832
 30
0.0
 10
0.273053
 20
51.487872
 30
0.0
 10
0.187148
 20
45.588956
 30
0.0
 10
0.171239
 20
39.702749
 30
0.0
 10
0.206237
 20
33.829269
 30
0.0
 10
0.273053
 20
27.968536
 30
0.0
 10
0.330389
 20
26.215898
 30
0.0
 10
0.477206
 20
24.509143
 30
0.0
 10
0.713905
 20
22.848818
 30
0.0
 10
1.040882
 20
21.235471
 30
0.0
 10
1.458536
 20
19.669649
 30
0.0
 10
1.967265
 20
18.151899
 30
0.0
 10
2.567467
 20
16.682768
 30
0.0
 10
3.259541
 20
15.262805
 30
0.0
 10
4.043885
 20
13.892555
 30
0.0
 10
4.920896
 20
12.572568
 30
0.0
 10
5.890974
 20
11.303389
 30
0.0
 10
6.954516
 20
10.085567
 30
0.0
 10
8.111920
 20
8.919648
 30
0.0
 10
9.363586
 20
7.806180
 30
0.0
 10
10.709910
 20
6.745711
 30
0.0
 10
12.151291
 20
5.738787
 30
0.0
 10
13.182189
 20
5.082322
 30
0.0
 10
14.225960
 20
4.462604
 30
0.0
 10
15.282752
 20
3.880575
 30
0.0
 10
16.352715
 20
3.337180
 30
0.0
 10
17.435999
 20
2.833362
 30
0.0
 10
18.532755
 20
2.370063
 30
0.0
 10
19.643130
 20
1.948229
 30
0.0
 10
20.767276
 20
1.568802
 30
0.0
 10
21.905342
 20
1.232726
 30
0.0
 10
23.057478
 20
0.940945
 30
0.0
 10
24.223833
 20
0.694401
 30
0.0
 10
25.404558
 20
0.494039
 30
0.0
 10
26.599801
 20
0.340801
 30
0.0
 10
27.809713
 20
0.235632
 30
0.0
 10
29.034443
 20
0.179475
 30
0.0
 10
30.274141
 20
0.173273
 30
0.0
 10
36.204903
 20
0.250143
 30
0.0
 10
42.135722
 20
0.253809
 30
0.0
 10
53.997305
 20
0.207078
 30
0.0
 10
55.143864
 20
0.233822
 30
0.0
 10
56.285350
 20
0.313257
 30
0.0
 10
57.420274
 20
0.444183
 30
0.0
 10
58.547143
 20
0.625400
 30
0.0
 10
59.664467
 20
0.855709
 30
0.0
 10
60.770753
 20
1.133911
 30
0.0
 10
61.864510
 20
1.458806
 30
0.0
 10
62.944248
 20
1.829196
 30
0.0
 10
64.008474
 20
2.243881
 30
0.0
 10
65.055698
 20
2.701661
 30
0.0
 10
66.084428
 20
3.201338
 30
0.0
 10
67.093172
 20
3.741712
 30
0.0
 10
68.080440
 20
4.321583
 30
0.0
 10
69.044739
 20
4.939753
 30
0.0
 10
69.984579
 20
5.595022
 30
0.0
 10
70.898468
 20
6.286192
 30
0.0
 10
71.784915
 20
7.012061
 30
0.0
 10
72.642429
 20
7.771432
 30
0.0
 10
73.469517
 20
8.563105
 30
0.0
 10
74.264689
 20
9.385881
 30
0.0
 10
75.026453
 20
10.238560
 30
0.0
 10
75.753318
 20
11.119943
 30
0.0
 10
76.443793
 20
12.028831
 30
0.0
 10
77.096386
 20
12.964024
 30
0.0
 10
77.709606
 20
13.924324
 30
0.0
 10
78.281961
 20
14.908531
 30
0.0
 10
78.811960
 20
15.915445
 30
0.0
 10
79.298112
 20
16.943867
 30
0.0
 10
79.738926
 20
17.992599
 30
0.0
 10
80.132909
 20
19.060440
 30
0.0
 10
80.478571
 20
20.146192
 30
0.0
 10
80.774420
 20
21.248655
 30
0.0
 10
81.293565
 20
23.663082
 30
0.0
 10
81.500437
 20
24.870513
 30
0.0
 10
81.669526
 20
26.080734
 30
0.0
 10
81.798843
 20
27.295728
 30
0.0
 10
81.886401
 20
28.517477
 30
0.0
 10
81.930212
 20
29.747965
 30
0.0
 10
81.928288
 20
30.989175
 30
0.0
 10
81.868902
 20
36.863640
 30
0.0
 10
81.885882
 20
42.731692
 30
0.0
 10
81.890136
 20
48.599744
 30
0.0
 10
81.859648
 20
51.535775
 30
0.0
 10
81.792569
 20
54.474210
 30
0.0
 10
81.695665
 20
55.715878
 30
0.0
 10
81.513659
 20
56.924146
 30
0.0
 10
81.256890
 20
58.103782
 30
0.0
 10
80.935693
 20
59.259558
 30
0.0
 10
80.560408
 20
60.396244
 30
0.0
 10
80.141371
 20
61.518610
 30
0.0
 10
79.213392
 20
63.739463
 30
0.0
 10
75.497688
 20
72.192754
 30
0.0
 10
71.861541
 20
80.687414
 30
0.0
 10
64.687868
 20
97.711728
 30
0.0
 10
64.439710
 20
98.195279
 30
0.0
 10
64.174104
 20
98.599268
 30
0.0
 10
63.893475
 20
98.928646
 30
0.0
 10
63.600245
 20
99.188366
 30
0.0
 10
63.296839
 20
99.383380
 30
0.0
 10
62.985681
 20
99.518640
 30
0.0
 10
62.669195
 20
99.599097
 30
0.0
 10
62.349804
 20
99.629704
 30
0.0
  0
ENDSEC
  0
SECTION
  2
OBJECTS
  0
DICTIONARY
  5
C
330
0
100
AcDbDictionary
  3
ACAD_GROUP
350
D
  3
ACAD_MLINESTYLE
350
17
  0
DICTIONARY
  5
D
330
C
100
AcDbDictionary
  0
DICTIONARY
  5
1A
330
C
100
AcDbDictionary
  0
DICTIONARY
  5
17
330
C
100
AcDbDictionary
  3
STANDARD
350
18
  0
DICTIONARY
  5
19
330
C
100
AcDbDictionary
  0
ENDSEC
  0
EOF
