<?xml version="1.0" encoding="UTF-8" standalone="no"?>
<!-- Created with Inkscape (http://www.inkscape.org/) -->

<svg
   xmlns:dc="http://purl.org/dc/elements/1.1/"
   xmlns:cc="http://creativecommons.org/ns#"
   xmlns:rdf="http://www.w3.org/1999/02/22-rdf-syntax-ns#"
   xmlns:svg="http://www.w3.org/2000/svg"
   xmlns="http://www.w3.org/2000/svg"
   xmlns:sodipodi="http://sodipodi.sourceforge.net/DTD/sodipodi-0.dtd"
   xmlns:inkscape="http://www.inkscape.org/namespaces/inkscape"
   width="82.10482mm"
   height="99.799995mm"
   viewBox="0 0 82.10482 99.799995"
   version="1.1"
   id="svg8"
   inkscape:version="0.92.3 (2405546, 2018-03-11)"
   sodipodi:docname="board-outline.svg">
  <defs
     id="defs2">
    <clipPath
       id="clipPath3263"
       clipPathUnits="userSpaceOnUse">
      <path
         style="clip-rule:evenodd"
         inkscape:connector-curvature="0"
         id="path3261"
         d="M 0,0 H 1417.2 V 1052.4 H 0 Z" />
    </clipPath>
  </defs>
  <sodipodi:namedview
     id="base"
     pagecolor="#ffffff"
     bordercolor="#666666"
     borderopacity="1.0"
     inkscape:pageopacity="0.0"
     inkscape:pageshadow="2"
     inkscape:zoom="2.8"
     inkscape:cx="190.51885"
     inkscape:cy="398.45829"
     inkscape:document-units="mm"
     inkscape:current-layer="layer1"
     showgrid="false"
     inkscape:window-width="1920"
     inkscape:window-height="1137"
     inkscape:window-x="-8"
     inkscape:window-y="-8"
     inkscape:window-maximized="1"
     fit-margin-top="0"
     fit-margin-left="0"
     fit-margin-right="0"
     fit-margin-bottom="0" />
  <metadata
     id="metadata5">
    <rdf:RDF>
      <cc:Work
         rdf:about="">
        <dc:format>image/svg+xml</dc:format>
        <dc:type
           rdf:resource="http://purl.org/dc/dcmitype/StillImage" />
        <dc:title></dc:title>
      </cc:Work>
    </rdf:RDF>
  </metadata>
  <g
     inkscape:label="Layer 1"
     inkscape:groupmode="layer"
     id="layer1"
     transform="translate(-31.952959,-75.612314)">
    <path
       inkscape:connector-curvature="0"
       id="path3745"
       d="m 94.30276,75.782597 c -0.461023,-0.01056 -0.922944,0.120313 -1.354216,0.322644 H 51.299398 c -1.052089,-0.135752 -2.308202,-0.576751 -2.953029,1.22198 -1.459348,4.106532 -3.156096,8.111383 -4.751196,12.183978 -2.749002,6.719782 -6.346493,13.100021 -8.518546,20.023431 -1.425408,4.71742 -2.680926,9.50269 -2.850618,14.3898 -0.16969,7.87369 -0.101815,15.71353 0,23.51934 0.06788,9.46878 3.936678,17.00325 11.878238,22.22975 5.464066,3.59745 11.470946,5.66732 18.12285,5.56551 7.907621,-0.16969 15.815542,-0.0338 23.723165,-0.0338 12.251703,0 23.892358,-9.19711 26.777118,-21.04157 0.78058,-3.22414 1.22174,-6.41457 1.15387,-9.74052 -0.16969,-7.83975 0.10184,-15.64529 -0.13572,-23.48504 -0.13576,-3.35989 -1.28953,-6.31262 -2.57918,-9.26525 -5.02287,-11.23358 -9.74023,-22.636875 -14.525525,-33.972267 -0.636336,-1.399954 -1.484637,-1.898422 -2.338065,-1.917976 z"
       style="fill:none;fill-opacity:1;fill-rule:evenodd;stroke:#000000;stroke-width:0.33938292;stroke-opacity:1" />
  </g>
</svg>
