<?xml version="1.0" encoding="UTF-8" standalone="no"?>
<svg
   xmlns:dc="http://purl.org/dc/elements/1.1/"
   xmlns:cc="http://creativecommons.org/ns#"
   xmlns:rdf="http://www.w3.org/1999/02/22-rdf-syntax-ns#"
   xmlns:svg="http://www.w3.org/2000/svg"
   xmlns="http://www.w3.org/2000/svg"
   xmlns:sodipodi="http://sodipodi.sourceforge.net/DTD/sodipodi-0.dtd"
   xmlns:inkscape="http://www.inkscape.org/namespaces/inkscape"
   version="1.2"
   x="0in"
   y="0in"
   width="3.494097in"
   height="3.9463379in"
   viewBox="0 0 251.5756 284.13543"
   id="svg1260"
   sodipodi:docname="front.svg"
   inkscape:version="0.92.3 (2405546, 2018-03-11)">
  <metadata
     id="metadata1266">
    <rdf:RDF>
      <cc:Work
         rdf:about="">
        <dc:format>image/svg+xml</dc:format>
        <dc:type
           rdf:resource="http://purl.org/dc/dcmitype/StillImage" />
        <dc:title></dc:title>
      </cc:Work>
    </rdf:RDF>
  </metadata>
  <defs
     id="defs1264" />
  <sodipodi:namedview
     pagecolor="#ffffff"
     bordercolor="#666666"
     borderopacity="1"
     objecttolerance="10"
     gridtolerance="10"
     guidetolerance="10"
     inkscape:pageopacity="0"
     inkscape:pageshadow="2"
     inkscape:window-width="1920"
     inkscape:window-height="1137"
     id="namedview1262"
     showgrid="false"
     inkscape:zoom="1.682418"
     inkscape:cx="63.070146"
     inkscape:cy="141.23901"
     inkscape:window-x="-8"
     inkscape:window-y="-8"
     inkscape:window-maximized="1"
     inkscape:current-layer="svg1260"
     fit-margin-top="0"
     fit-margin-left="0"
     fit-margin-right="0"
     fit-margin-bottom="0" />
  <path
     d="m 245.00058,170.17509 h 4.30001 v -36.80008 h -8.50002 v 36.80008 z"
     style="display:inline;fill:none;stroke:#72bf44;stroke-width:0.75000185;stroke-linecap:butt;stroke-linejoin:round;stroke-miterlimit:10;stroke-dasharray:none;stroke-opacity:1"
     id="path32131"
     inkscape:connector-curvature="0" />
  <path
     d="m 245.00058,170.17511 h 4.30001 v -36.80007 h -8.50002 v 36.80007 z"
     style="display:inline;fill:#72bf44;fill-opacity:1;fill-rule:evenodd;stroke:none;stroke-width:1.0000025"
     id="path32127"
     inkscape:connector-curvature="0" />
  <path
     d="m 247.30059,188.47515 h 3.9 v -3.8 h -7.90001 v 3.8 z"
     style="display:inline;fill:#000000;fill-opacity:1;fill-rule:evenodd;stroke:none;stroke-width:1.0000025"
     id="path32115"
     inkscape:connector-curvature="0" />
  <path
     d="m 6.79954,178.84747 c 0,-0.5 -0.50001,-0.9 -1.00001,-0.9 h -3.8 c -0.4,0 -0.9,0.4 -0.9,0.9 v 12.30002 c 0,0.5 0.5,1 0.9,1 h 3.8 c 0.5,0 1.00001,-0.5 1.00001,-1 z m 0,-0.9 z m -5.70001,14.20002 z"
     style="display:inline;fill:#000000;fill-opacity:1;fill-rule:evenodd;stroke:none;stroke-width:1.0000025"
     id="path35227"
     inkscape:connector-curvature="0" />
  <path
     inkscape:connector-curvature="0"
     style="display:inline;fill:#820f71;fill-opacity:1;fill-rule:evenodd;stroke:none;stroke-width:1.0000025;stroke-opacity:1"
     d="M 62.92536,1.669026 C 57.99147,1.533916 54.92992,2.851868 53.02445,6.5748 39.02442,38.874877 25.12419,71.375161 10.32415,103.27523 c -3.80001,8.3 -7.29963,16.79987 -7.59963,26.29987 -0.8,22.30008 0.1001,44.49988 -0.3999,66.79996 -0.3,9.50002 0.9999,18.50025 3.39991,27.70026 8.50002,33.80008 42.79952,59.90054 78.89961,59.90054 23.30005,0 46.60099,-0.4 69.90105,0 19.60004,0.39999 37.1995,-5.50023 53.39954,-15.70024 23.40006,-14.90004 34.70013,-36.30038 34.89998,-63.30045 0.4,-22.20006 0.60001,-44.49952 0,-66.89956 -0.4,-13.90006 -4.09983,-27.49995 -8.29982,-40.900005 -6.40002,-19.700043 -17.00013,-37.900094 -25.10015,-57.000137 -4.7,-11.500027 -9.69954,-23.000741 -13.99955,-34.700769 -1.1875,-3.125007 -4.21475,-3.834983 -5.82277,-3.785165 -1.60802,0.04982 -1.79577,0.05962 -2.10059,-0.02051 z m 108.29908,4.105967 c 4.00002,0 7.00051,3.100105 7.00051,7.100115 0,4.000009 -3.00049,7.100115 -7.00051,7.100115 -4.1,0 -7.10011,-3.100106 -7.10011,-7.100115 0,-4.00001 3.00011,-7.100115 7.10011,-7.100115 z m -94.79905,1.1001 c 4.00001,0 7.09865,3.100106 7.09865,7.100115 0,4.00001 -3.09864,7.100115 -7.09865,7.100115 -4.10001,0 -7.10012,-3.100105 -7.10012,-7.100115 0,-4.000009 3.00011,-7.100115 7.10012,-7.100115 z"
     id="path50291" />
  <path
     d="m 123.52485,235.17528 c -10.60002,0 -21.30005,-0.60001 -31.70007,0.10006 -16.50005,1.00001 -33.60009,-12.30001 -33.90009,-32.60006 -0.3,-22.10006 -0.3,-44.30011 0,-66.40014 0.3,-16.40006 14.80004,-30.1001 32.40008,-30.5001 23.50006,-0.5 46.90012,-0.29999 70.40017,0 15.80005,0.30002 29.70008,14.70005 29.90008,31.10009 0.3,23.40004 0.3,46.80009 0,70.20015 -0.10001,14.80003 -15.00004,27.80006 -31.40008,28.10009 -11.80003,0.10005 -23.80005,0 -35.70009,0 z"
     style="display:inline;fill:#ffffff;fill-opacity:1;fill-rule:evenodd;stroke:none;stroke-width:1.0000025"
     id="path32135"
     inkscape:connector-curvature="0" />
  <path
     inkscape:connector-curvature="0"
     id="path33297"
     style="fill:#b3b3b3;fill-opacity:1;stroke:#000000;stroke-width:0.75000179;stroke-linecap:butt;stroke-linejoin:round;stroke-miterlimit:10;stroke-dasharray:none;stroke-opacity:1"
     d="m 138.22483,17.374726 h -9.90002 V 0.374685 h 19.90005 v 17.000041 z" />
  <path
     inkscape:connector-curvature="0"
     style="display:inline;fill:#ffffff;fill-opacity:1;fill-rule:evenodd;stroke:none;stroke-width:1.93039834;stroke-miterlimit:4;stroke-dasharray:none;stroke-opacity:1"
     d="m 62.92536,1.669026 c 0.50858,0.170802 1.29729,0.727002 1.5,0.90674 0.54618,0.484282 1.19971,2.499029 1.19971,3.999034 0.10001,16.900039 0.10001,33.700572 0,50.500611 0,3.70001 0.19952,3.799425 4.99952,3.899423 7.60002,0.199985 15.10073,-0.700588 22.70074,-0.600587 17.00005,0 34.19892,-0.100006 51.29896,0 13.30003,-0.100006 33.39969,1.496108 36.59628,1.14844 3.19658,-0.347664 2.87303,-3.952804 2.90479,-5.74806 0.20001,-16.300038 -7.5e-4,-32.500275 0.19922,-48.700315 0,-1.900005 0.50088,-4.599523 2.40088,-4.999523 0.80678,-0.104101 1.65328,-0.258088 2.49903,-0.347169 V 1.66903 Z m 108.29908,4.105967 c 4.00002,0 7.00051,3.100106 7.00051,7.100115 0,4.000009 -3.00049,7.100115 -7.00051,7.100115 -4.1,0 -7.10011,-3.100106 -7.10011,-7.100115 0,-4.000009 3.00011,-7.100115 7.10011,-7.100115 z m -94.79905,1.1001 c 4.00001,0 7.09865,3.100106 7.09865,7.100115 0,4.00001 -3.09864,7.100115 -7.09865,7.100115 -4.10001,0 -7.10012,-3.100105 -7.10012,-7.100115 0,-4.000009 3.00011,-7.100115 7.10012,-7.100115 z"
     id="path33311" />
  <path
     d="m 76.42474,6.874701 c 4.00001,0 7.10002,3.100007 7.10002,7.100017 0,4.000009 -3.10001,7.100017 -7.10002,7.100017 -4.10001,0 -7.10002,-3.100008 -7.10002,-7.100017 0,-4.00001 3.00001,-7.100017 7.10002,-7.100017 z"
     style="display:inline;fill:none;stroke:#000000;stroke-width:0.75000179;stroke-linecap:butt;stroke-linejoin:round;stroke-miterlimit:10;stroke-dasharray:none;stroke-opacity:1"
     id="path50539"
     inkscape:connector-curvature="0" />
  <g
     partID="68970"
     id="g1172"
     transform="rotate(45,124.37551,187.61217)">
    <g
       transform="translate(14.4,92.1207)"
       id="g1170">
      <g
         transform="scale(-1)"
         id="g1168">
        <g
           id="g1166">
          <rect
             width="14.4"
             height="7.1999998"
             id="rect1140"
             x="0"
             y="0"
             style="fill:#404040" />
          <rect
             x="2.2084301"
             width="2.7831199"
             id="connector0pin"
             y="2.2084301"
             height="2.7831199"
             style="fill:none" />
          <g
             x="2.51834"
             width="2.15829"
             id="connector0terminal"
             y="2.47054"
             height="2.25658"
             style="fill:none" />
          <rect
             x="2.2084301"
             width="2.7831199"
             y="2.2084301"
             height="2.7831199"
             id="rect1144" />
          <polygon
             points="1.18445,1.18445 2.20843,2.20843 4.99156,2.20843 6.01654,1.18445 "
             id="polygon1146"
             style="fill:#2a2a29" />
          <polygon
             points="6.01654,1.18445 4.99156,2.20843 4.99156,4.99156 6.01654,6.01654 "
             id="polygon1148"
             style="fill:#474747" />
          <polygon
             points="6.01654,6.01654 4.99156,4.99156 2.20843,4.99156 1.18445,6.01654 "
             id="polygon1150"
             style="fill:#595959" />
          <polygon
             points="1.18445,6.01654 2.20843,4.99156 2.20843,2.20843 1.18445,1.18445 "
             id="polygon1152"
             style="fill:#373737" />
          <rect
             x="9.4084597"
             width="2.7831199"
             id="connector1pin"
             y="2.2084301"
             height="2.7831199"
             style="fill:none" />
          <g
             x="9.71834"
             width="2.15829"
             id="connector1terminal"
             y="2.47054"
             height="2.25658"
             style="fill:none" />
          <rect
             x="9.4084597"
             width="2.7831199"
             y="2.2084301"
             height="2.7831199"
             id="rect1156" />
          <polygon
             points="8.38447,1.18445 9.40846,2.20843 12.1915,2.20843 13.2165,1.18445 "
             id="polygon1158"
             style="fill:#2a2a29" />
          <polygon
             points="13.2165,1.18445 12.1915,2.20843 12.1915,4.99156 13.2165,6.01654 "
             id="polygon1160"
             style="fill:#474747" />
          <polygon
             points="13.2165,6.01654 12.1915,4.99156 9.40846,4.99156 8.38447,6.01654 "
             id="polygon1162"
             style="fill:#595959" />
          <polygon
             points="8.38447,6.01654 9.40846,4.99156 9.40846,2.20843 8.38447,1.18445 "
             id="polygon1164"
             style="fill:#373737" />
        </g>
      </g>
    </g>
  </g>
  <path
     style="display:inline;fill:none;fill-opacity:1;fill-rule:evenodd;stroke:#000000;stroke-width:0.28346527;stroke-miterlimit:4;stroke-dasharray:none;stroke-opacity:1"
     d="m 189.60263,1.689325 c -1.60802,0.04982 -1.79598,0.05983 -2.1008,-0.0203 H 62.92536 c -4.93389,-0.13511 -7.99544,1.182842 -9.90091,4.905774 -14.00003,32.300078 -27.90026,64.800355 -42.7003,96.700431 -3.80001,8.3 -7.29963,16.79987 -7.59963,26.29987 -0.8,22.30006 0.1001,44.49988 -0.3999,66.79996 -0.3,9.50002 0.9999,18.50025 3.39991,27.70026 8.50002,33.80008 42.79952,59.90054 78.89961,59.90054 23.30005,0 46.60099,-0.4 69.90105,0 19.60004,0.39999 37.1995,-5.50023 53.39954,-15.70024 23.40006,-14.90004 34.70013,-36.30038 34.89998,-63.30045 0.4,-22.20006 0.60001,-44.49952 0,-66.89957 -0.4,-13.90005 -4.09983,-27.49994 -8.29982,-40.899996 -6.40002,-19.700043 -17.00013,-37.900092 -25.10015,-57.000137 -4.7,-11.500027 -9.69954,-23.000741 -13.99955,-34.700769 -1.1875,-3.125008 -4.21454,-3.835192 -5.82256,-3.785373 z"
     id="path32133"
     inkscape:connector-curvature="0"
     sodipodi:nodetypes="zcccccccscccccccz" />
  <path
     d="m 19.90002,118.475 c 2.00002,0 4.00001,2.00001 4.00001,3.9 v 39.4001 c 0,1.90001 -1.99999,3.9 -4.00001,3.9 H 4 c -2.00002,0 -4,-1.99999 -4,-3.9 V 122.375 c 0,-1.89999 1.99998,-3.9 4,-3.9 z m 4.00001,0 z M 0,165.7751 Z"
     style="display:inline;fill:#f58220;fill-opacity:1;fill-rule:evenodd;stroke:none;stroke-width:1.0000025"
     id="path32141"
     inkscape:connector-curvature="0" />
  <path
     d="m 76.42474,6.874701 c 4.00001,0 7.10002,3.100007 7.10002,7.100017 0,4.000009 -3.10001,7.100017 -7.10002,7.100017 -4.10001,0 -7.10002,-3.100008 -7.10002,-7.100017 0,-4.00001 3.00001,-7.100017 7.10002,-7.100017 z"
     style="display:inline;fill:none;stroke:#000000;stroke-width:0.75000179;stroke-linecap:butt;stroke-linejoin:round;stroke-miterlimit:10;stroke-dasharray:none;stroke-opacity:1"
     id="path50567"
     inkscape:connector-curvature="0" />
  <path
     d="m 171.22497,5.774698 c 4.00001,0 7.00001,3.100008 7.00001,7.100017 0,4.00001 -3,7.100017 -7.00001,7.100017 -4.10001,0 -7.10002,-3.100007 -7.10002,-7.100017 0,-4.000009 3.00001,-7.100017 7.10002,-7.100017 z"
     style="display:inline;fill:none;stroke:#000000;stroke-width:0.75000179;stroke-linecap:butt;stroke-linejoin:round;stroke-miterlimit:10;stroke-dasharray:none;stroke-opacity:1"
     id="path50558"
     inkscape:connector-curvature="0" />
  <g
     style="display:inline;fill:#f2f2f2"
     id="g32157"
     transform="matrix(1.0000024,0,0,-1.0000024,-50.37557,746.87647)">
    <path
       d="M 173.8,557.7 H 68.9 v 95.5 h 209.7 v -95.5 z"
       style="fill:#f2f2f2;stroke:#000000;stroke-width:0.75;stroke-linecap:butt;stroke-linejoin:round;stroke-miterlimit:10;stroke-dasharray:none;stroke-opacity:1"
       id="path32159"
       inkscape:connector-curvature="0" />
  </g>
  <g
     transform="matrix(1.0000024,0,0,-1.0000024,-50.37557,746.87647)"
     style="display:inline;fill:#000000"
     id="g32731">
    <path
       inkscape:connector-curvature="0"
       id="path32733"
       style="fill:#000000;stroke:#000000;stroke-width:0.75;stroke-linecap:butt;stroke-linejoin:round;stroke-miterlimit:10;stroke-dasharray:none;stroke-opacity:1"
       d="M 245.1,706.4 H 238 v 14.2 h 14.2 v -14.2 z" />
  </g>
  <path
     inkscape:connector-curvature="0"
     id="path32189"
     style="display:inline;fill:#000000;stroke:#000000;stroke-width:0.75000179;stroke-linecap:butt;stroke-linejoin:round;stroke-miterlimit:10;stroke-dasharray:none;stroke-opacity:1"
     d="m 201.12503,63.674863 h -7.00001 V 49.474826 h 14.10005 v 14.200037 z" />
  <g
     style="display:inline;fill:#000000"
     id="g33319"
     transform="matrix(1.0000024,0,0,-1.0000024,-50.37557,746.87647)">
    <path
       d="m 96.4,683.1 h -7.1 v 14.2 h 14.2 v -14.2 z"
       style="fill:#000000;stroke:#000000;stroke-width:0.75;stroke-linecap:butt;stroke-linejoin:round;stroke-miterlimit:10;stroke-dasharray:none;stroke-opacity:1"
       id="path33321"
       inkscape:connector-curvature="0" />
  </g>
  <path
     inkscape:connector-curvature="0"
     id="path33865"
     style="display:inline;fill:#000000;stroke:#000000;stroke-width:0.75000179;stroke-linecap:butt;stroke-linejoin:round;stroke-miterlimit:10;stroke-dasharray:none;stroke-opacity:1"
     d="M 53.32468,40.574806 H 46.22467 V 26.374772 H 60.3247 v 14.200034 z" />
  <path
     inkscape:connector-curvature="0"
     id="path34455"
     style="display:inline;fill:none;stroke:#000000;stroke-width:0.75000179;stroke-linecap:butt;stroke-linejoin:round;stroke-miterlimit:10;stroke-dasharray:none;stroke-opacity:1"
     d="M 160.42494,206.07519 Z" />
  <rect
     style="opacity:1;fill:#cccccc;fill-opacity:1;stroke:none;stroke-width:0.41551104;stroke-miterlimit:4;stroke-dasharray:none;stroke-opacity:1"
     id="rect2404"
     width="47.253529"
     height="49.482468"
     x="163.79825"
     y="208.33403" />
  <rect
     y="212.75343"
     x="166.58865"
     height="37.446194"
     width="37.446194"
     id="rect2406"
     style="opacity:1;fill:#f2f2f2;fill-opacity:1;stroke:none;stroke-width:0.32177138;stroke-miterlimit:4;stroke-dasharray:none;stroke-opacity:1" />
  <g
     partID="69000"
     id="g1210"
     transform="rotate(45,124.37551,187.61217)">
    <g
       transform="translate(14.4,84.9207)"
       id="g1208">
      <g
         transform="scale(-1)"
         id="g1206">
        <g
           id="g1204">
          <rect
             width="14.4"
             height="7.1999998"
             id="rect1174"
             x="0"
             y="0"
             style="fill:#404040" />
          <rect
             x="2.2084301"
             width="2.7831199"
             id="connector2pin"
             y="2.2084301"
             height="2.7831199"
             style="fill:none" />
          <g
             x="2.51834"
             width="2.15829"
             id="connector2terminal"
             y="2.47054"
             height="2.25658"
             style="fill:none" />
          <rect
             x="2.2084301"
             width="2.7831199"
             y="2.2084301"
             height="2.7831199"
             id="rect1180" />
          <polygon
             points="1.18445,1.18445 2.20843,2.20843 4.99156,2.20843 6.01654,1.18445 "
             id="polygon1182"
             style="fill:#2a2a29" />
          <polygon
             points="6.01654,1.18445 4.99156,2.20843 4.99156,4.99156 6.01654,6.01654 "
             id="polygon1184"
             style="fill:#474747" />
          <polygon
             points="6.01654,6.01654 4.99156,4.99156 2.20843,4.99156 1.18445,6.01654 "
             id="polygon1186"
             style="fill:#595959" />
          <polygon
             points="1.18445,6.01654 2.20843,4.99156 2.20843,2.20843 1.18445,1.18445 "
             id="polygon1188"
             style="fill:#373737" />
          <rect
             x="9.4084597"
             width="2.7831199"
             id="connector3pin"
             y="2.2084301"
             height="2.7831199"
             style="fill:none" />
          <g
             x="9.71834"
             width="2.15829"
             id="connector3terminal"
             y="2.47054"
             height="2.25658"
             style="fill:none" />
          <rect
             x="9.4084597"
             width="2.7831199"
             y="2.2084301"
             height="2.7831199"
             id="rect1194" />
          <polygon
             points="8.38447,1.18445 9.40846,2.20843 12.1915,2.20843 13.2165,1.18445 "
             id="polygon1196"
             style="fill:#2a2a29" />
          <polygon
             points="13.2165,1.18445 12.1915,2.20843 12.1915,4.99156 13.2165,6.01654 "
             id="polygon1198"
             style="fill:#474747" />
          <polygon
             points="13.2165,6.01654 12.1915,4.99156 9.40846,4.99156 8.38447,6.01654 "
             id="polygon1200"
             style="fill:#595959" />
          <polygon
             points="8.38447,6.01654 9.40846,4.99156 9.40846,2.20843 8.38447,1.18445 "
             id="polygon1202"
             style="fill:#373737" />
        </g>
      </g>
    </g>
  </g>
  <path
     inkscape:connector-curvature="0"
     id="path34567"
     style="display:inline;fill:none;stroke:#000000;stroke-width:0.75000179;stroke-linecap:butt;stroke-linejoin:round;stroke-miterlimit:10;stroke-dasharray:none;stroke-opacity:1"
     d="M 96.62479,218.57521 Z" />
  <path
     inkscape:connector-curvature="0"
     id="path34571"
     style="display:inline;fill:none;stroke:#000000;stroke-width:0.75000179;stroke-linecap:butt;stroke-linejoin:round;stroke-miterlimit:10;stroke-dasharray:none;stroke-opacity:1"
     d="M 150.72492,272.67535 Z" />
  <path
     inkscape:connector-curvature="0"
     id="path34679"
     style="display:inline;fill:none;stroke:#000000;stroke-width:0.75000179;stroke-linecap:butt;stroke-linejoin:round;stroke-miterlimit:10;stroke-dasharray:none;stroke-opacity:1"
     d="M 32.62463,206.07519 Z" />
  <path
     inkscape:connector-curvature="0"
     id="path34683"
     style="display:inline;fill:none;stroke:#000000;stroke-width:0.75000179;stroke-linecap:butt;stroke-linejoin:round;stroke-miterlimit:10;stroke-dasharray:none;stroke-opacity:1"
     d="M 86.62476,260.07532 Z" />
  <path
     d="m 247.30058,188.47512 h 3.90001 v -3.8 h -7.90002 v 3.8 z"
     style="display:inline;fill:none;stroke:#000000;stroke-width:0.75000185;stroke-linecap:butt;stroke-linejoin:round;stroke-miterlimit:10;stroke-dasharray:none;stroke-opacity:1"
     id="path32119"
     inkscape:connector-curvature="0" />
  <path
     inkscape:connector-curvature="0"
     id="path32095"
     style="display:inline;fill:none;stroke:#000000;stroke-width:0.75000179;stroke-linecap:butt;stroke-linejoin:round;stroke-miterlimit:10;stroke-dasharray:none;stroke-opacity:1"
     d="M 240.92513,192.17514 Z" />
  <g
     id="g2372"
     style="fill:#cccccc"
     transform="translate(253.39115,68.125333)">
    <ellipse
       ry="2.2500055"
       rx="1.5000037"
       cy="-61.735081"
       cx="-122.42906"
       id="path2307"
       style="opacity:1;fill:#cccccc;fill-opacity:1;stroke:none;stroke-width:0.22076508;stroke-miterlimit:4;stroke-dasharray:none;stroke-opacity:1" />
    <ellipse
       ry="2.2500055"
       rx="1.5000037"
       cy="-61.735081"
       cx="-107.49517"
       id="path2307-8"
       style="opacity:1;fill:#cccccc;fill-opacity:1;stroke:none;stroke-width:0.22076508;stroke-miterlimit:4;stroke-dasharray:none;stroke-opacity:1" />
    <circle
       r="1.5000037"
       cy="-56.415752"
       cx="-110.50422"
       id="path2307-8-8"
       style="opacity:1;fill:#cccccc;fill-opacity:1;stroke:none;stroke-width:0.18025394;stroke-miterlimit:4;stroke-dasharray:none;stroke-opacity:1" />
    <circle
       r="1.5000037"
       cy="-56.415752"
       cx="-119.13686"
       id="path2307-8-8-3"
       style="opacity:1;fill:#cccccc;fill-opacity:1;stroke:none;stroke-width:0.18025394;stroke-miterlimit:4;stroke-dasharray:none;stroke-opacity:1" />
  </g>
  <circle
     style="opacity:1;fill:#ffffff;fill-opacity:1;stroke:none;stroke-width:0.35103694;stroke-miterlimit:4;stroke-dasharray:none;stroke-opacity:1"
     id="path2354"
     cx="53.274681"
     cy="33.474789"
     r="6.0000148" />
  <circle
     r="6.0000148"
     cy="56.674816"
     cx="46.024666"
     id="circle2356"
     style="opacity:1;fill:#ffffff;fill-opacity:1;stroke:none;stroke-width:0.35103694;stroke-miterlimit:4;stroke-dasharray:none;stroke-opacity:1" />
  <circle
     r="6.0000148"
     cy="33.37476"
     cx="194.72502"
     id="circle2364"
     style="opacity:1;fill:#ffffff;fill-opacity:1;stroke:none;stroke-width:0.35103694;stroke-miterlimit:4;stroke-dasharray:none;stroke-opacity:1" />
  <circle
     style="opacity:1;fill:#ffffff;fill-opacity:1;stroke:none;stroke-width:0.35103694;stroke-miterlimit:4;stroke-dasharray:none;stroke-opacity:1"
     id="circle2366"
     cx="201.17505"
     cy="56.574844"
     r="6.0000148" />
  <rect
     y="220.88405"
     x="100.04809"
     height="49.482468"
     width="47.253529"
     id="rect2410"
     style="opacity:1;fill:#cccccc;fill-opacity:1;stroke:none;stroke-width:0.41551104;stroke-miterlimit:4;stroke-dasharray:none;stroke-opacity:1" />
  <rect
     style="opacity:1;fill:#f2f2f2;fill-opacity:1;stroke:none;stroke-width:0.32177138;stroke-miterlimit:4;stroke-dasharray:none;stroke-opacity:1"
     id="rect2412"
     width="37.446194"
     height="37.446194"
     x="102.83849"
     y="225.30345" />
  <g
     id="g2600">
    <rect
       y="208.33403"
       x="35.997929"
       height="49.482468"
       width="47.253529"
       id="rect2416"
       style="opacity:1;fill:#cccccc;fill-opacity:1;stroke:none;stroke-width:0.41551104;stroke-miterlimit:4;stroke-dasharray:none;stroke-opacity:1" />
    <rect
       style="opacity:1;fill:#f2f2f2;fill-opacity:1;stroke:none;stroke-width:0.32177138;stroke-miterlimit:4;stroke-dasharray:none;stroke-opacity:1"
       id="rect2418"
       width="37.446194"
       height="37.446194"
       x="38.788334"
       y="212.75343" />
  </g>
  <text
     xml:space="preserve"
     style="font-style:normal;font-weight:normal;font-size:30.00007248px;line-height:1.25;font-family:sans-serif;letter-spacing:0px;word-spacing:0px;fill:#000000;fill-opacity:1;stroke:none;stroke-width:0.75000185"
     x="47.228203"
     y="242.38232"
     id="text2510"><tspan
       sodipodi:role="line"
       id="tspan2508"
       x="47.228203"
       y="242.38232"
       style="stroke-width:0.75000185">X</tspan></text>
  <text
     id="text2606"
     y="254.93234"
     x="109.7476"
     style="font-style:normal;font-weight:normal;font-size:30.00007248px;line-height:1.25;font-family:sans-serif;letter-spacing:0px;word-spacing:0px;fill:#000000;fill-opacity:1;stroke:none;stroke-width:0.75000185"
     xml:space="preserve"><tspan
       style="stroke-width:0.75000185"
       y="254.93234"
       x="109.7476"
       id="tspan2604"
       sodipodi:role="line">O</tspan></text>
  <text
     id="text2610"
     y="242.38232"
     x="173.3586"
     style="font-style:normal;font-weight:normal;font-size:30.00007248px;line-height:1.25;font-family:sans-serif;letter-spacing:0px;word-spacing:0px;fill:#000000;fill-opacity:1;stroke:none;stroke-width:0.75000185"
     xml:space="preserve"><tspan
       style="stroke-width:0.75000185"
       y="242.38232"
       x="173.3586"
       id="tspan2608"
       sodipodi:role="line">R</tspan></text>
</svg>
