<?xml version="1.0" encoding="UTF-8" standalone="no"?>
<svg
   xmlns:dc="http://purl.org/dc/elements/1.1/"
   xmlns:cc="http://creativecommons.org/ns#"
   xmlns:rdf="http://www.w3.org/1999/02/22-rdf-syntax-ns#"
   xmlns:svg="http://www.w3.org/2000/svg"
   xmlns="http://www.w3.org/2000/svg"
   xmlns:sodipodi="http://sodipodi.sourceforge.net/DTD/sodipodi-0.dtd"
   xmlns:inkscape="http://www.inkscape.org/namespaces/inkscape"
   inkscape:version="0.92.3 (2405546, 2018-03-11)"
   sodipodi:docname="aram-logo.svg"
   xml:space="preserve"
   enable-background="new 0 0 714 714"
   viewBox="0 0 151.15338 151.18111"
   height="151.18111"
   width="151.15338"
   y="0px"
   x="0px"
   id="Layer_1"
   version="1.1"><metadata
   id="metadata8"><rdf:RDF><cc:Work
       rdf:about=""><dc:format>image/svg+xml</dc:format><dc:type
         rdf:resource="http://purl.org/dc/dcmitype/StillImage" /><dc:title></dc:title></cc:Work></rdf:RDF></metadata><defs
   id="defs6" /><sodipodi:namedview
   inkscape:document-units="mm"
   inkscape:current-layer="layer1"
   inkscape:window-maximized="1"
   inkscape:window-y="-8"
   inkscape:window-x="-8"
   inkscape:cy="126.16721"
   inkscape:cx="343.92076"
   inkscape:zoom="1.3221289"
   showgrid="false"
   id="namedview4"
   inkscape:window-height="657"
   inkscape:window-width="1280"
   inkscape:pageshadow="2"
   inkscape:pageopacity="0"
   guidetolerance="10"
   gridtolerance="10"
   objecttolerance="10"
   borderopacity="1"
   bordercolor="#666666"
   pagecolor="#ffffff"
   fit-margin-top="0"
   fit-margin-left="0"
   fit-margin-right="0"
   fit-margin-bottom="0" />  
<g
   inkscape:groupmode="layer"
   id="layer1"
   inkscape:label="SilkS"
   transform="translate(-25.943455,-545.46451)"><path
     id="path4580"
     style="fill:#000000;fill-opacity:1;stroke:#000000;stroke-width:0.08665192;stroke-miterlimit:4;stroke-dasharray:none;stroke-opacity:1"
     d="m 110.43382,689.91801 c 12.1447,-1.67609 22.96113,-6.14294 33.00447,-13.62985 3.44819,-2.57049 10.1362,-9.12731 12.64199,-12.39401 10.34868,-13.49119 15.38294,-28.85659 14.8354,-45.28014 -0.49306,-14.78935 -5.11675,-27.87145 -14.1266,-39.96938 -2.92439,-3.9267 -9.42409,-10.42641 -13.35079,-13.35079 -10.13337,-7.54677 -20.72278,-11.90188 -33.20602,-13.65667 -4.02831,-0.56626 -13.854488,-0.56626 -17.882793,0 -8.11388,1.14058 -15.250512,3.32873 -22.086759,6.77198 -7.29909,3.67637 -12.238477,7.2628 -18.1652,13.18952 -5.926724,5.92672 -9.513163,10.86611 -13.189543,18.16521 -4.557842,9.04917 -6.90732,18.44806 -7.240424,28.96476 -0.519252,16.39317 4.519488,31.73271 14.835978,45.16551 2.155128,2.80615 8.880479,9.53127 11.685234,11.68488 11.127108,8.54381 23.208422,13.33386 37.020998,14.67824 2.980396,0.29008 12.143489,0.0859 15.224059,-0.33926 z m -13.842912,6.61992 C 86.227648,695.70907 77.318717,693.32651 68.391124,688.99634 46.852702,678.54949 31.401589,658.23476 27.152821,634.7773 c -0.941948,-5.20051 -1.16604,-7.84416 -1.16604,-13.75599 0,-5.91184 0.224092,-8.55549 1.16604,-13.756 5.441428,-30.04213 29.114482,-54.2326 59.00646,-60.29614 5.885868,-1.19394 8.696515,-1.46133 15.360859,-1.46133 6.66434,0 9.47501,0.26739 15.36086,1.46133 29.89197,6.06354 53.56505,30.25401 59.00646,60.29614 0.94195,5.20051 1.16605,7.84416 1.16605,13.756 0,5.91183 -0.2241,8.55548 -1.16605,13.75599 -2.77197,15.30404 -10.41117,29.57514 -21.66607,40.47517 -11.97519,11.59761 -26.89056,18.74473 -43.53059,20.85889 -2.74122,0.34829 -11.692731,0.6191 -14.099892,0.42657 z"
     inkscape:connector-curvature="0" /><path
     style="fill:#000000;fill-opacity:1;stroke:#000000;stroke-width:0.08665192;stroke-miterlimit:4;stroke-dasharray:none;stroke-opacity:1"
     d="m 99.369114,679.93169 c -1.450775,-0.36443 -3.515435,-1.58638 -4.517766,-2.67378 -0.514909,-0.55861 -1.262685,-1.70478 -1.661723,-2.54705 -0.656987,-1.38677 -0.725514,-1.73826 -0.725514,-3.72134 0,-2.06688 0.04812,-2.28726 0.856241,-3.92242 1.031287,-2.08663 2.358878,-3.3864 4.490346,-4.3962 1.384953,-0.65613 1.73972,-0.72552 3.709442,-0.72552 1.96974,0 2.32449,0.0694 3.70944,0.72552 2.13149,1.0098 3.45908,2.30957 4.49035,4.3962 0.8091,1.63713 0.85624,1.8537 0.85624,3.93431 0,2.08061 -0.0471,2.29718 -0.85624,3.93431 -1.5493,3.13477 -4.30162,4.97405 -7.6841,5.13501 -0.97716,0.0465 -2.177186,-0.0161 -2.666716,-0.13904 z"
     id="path4578"
     inkscape:connector-curvature="0" /><path
     style="fill:#000000;fill-opacity:1;stroke:#000000;stroke-width:0.08665192;stroke-miterlimit:4;stroke-dasharray:none;stroke-opacity:1"
     d="m 83.320457,665.4879 c -1.450776,-0.36443 -3.515436,-1.58638 -4.517766,-2.67379 -0.51491,-0.5586 -1.262686,-1.70477 -1.661724,-2.54705 -0.656986,-1.38677 -0.725514,-1.73825 -0.725514,-3.72133 0,-2.06688 0.04812,-2.28726 0.856242,-3.92242 1.031286,-2.08663 2.358877,-3.3864 4.490345,-4.3962 1.384954,-0.65613 1.739721,-0.72552 3.709441,-0.72552 1.969744,0 2.324488,0.0694 3.709441,0.72552 2.131491,1.0098 3.459082,2.30957 4.490346,4.3962 0.809104,1.63713 0.856241,1.8537 0.856241,3.93431 0,2.08061 -0.04714,2.29718 -0.856241,3.93431 -1.549292,3.13477 -4.301614,4.97405 -7.684098,5.13501 -0.977157,0.0465 -2.177183,-0.0161 -2.666713,-0.13904 z"
     id="path4576"
     inkscape:connector-curvature="0" /><path
     style="fill:#000000;fill-opacity:1;stroke:#000000;stroke-width:0.08665192;stroke-miterlimit:4;stroke-dasharray:none;stroke-opacity:1"
     d="m 114.95924,665.4879 c -1.45078,-0.36443 -3.51544,-1.58638 -4.51777,-2.67379 -0.51491,-0.5586 -1.26268,-1.70477 -1.66172,-2.54705 -0.65699,-1.38677 -0.72551,-1.73825 -0.72551,-3.72133 0,-2.06688 0.0481,-2.28726 0.85624,-3.92242 1.03128,-2.08663 2.35887,-3.3864 4.49034,-4.3962 1.38496,-0.65613 1.73972,-0.72552 3.70944,-0.72552 1.96975,0 2.32449,0.0694 3.70944,0.72552 2.1315,1.0098 3.45909,2.30957 4.49035,4.3962 0.8091,1.63713 0.85624,1.8537 0.85624,3.93431 0,2.08061 -0.0471,2.29718 -0.85624,3.93431 -1.54929,3.13477 -4.30161,4.97405 -7.6841,5.13501 -0.97715,0.0465 -2.17718,-0.0161 -2.66671,-0.13904 z"
     id="path4574"
     inkscape:connector-curvature="0" /><path
     style="fill:#000000;fill-opacity:1;stroke:#000000;stroke-width:0.08665192;stroke-miterlimit:4;stroke-dasharray:none;stroke-opacity:1"
     d="m 99.807976,653.29057 c -0.0511,-0.15762 -0.251344,-1.31828 -0.44496,-2.57925 -0.193616,-1.26096 -1.536223,-9.7209 -2.983583,-18.79985 -4.644642,-29.13467 -5.56423,-35.63698 -5.787719,-40.92408 -0.22216,-5.25526 0.36137,-9.13487 1.844885,-12.26576 0.969545,-2.04619 2.304449,-3.40789 4.232581,-4.31756 1.42723,-0.67335 1.690772,-0.71979 4.04853,-0.71343 2.06385,0.006 2.75732,0.10019 3.81788,0.52093 3.58004,1.42027 5.69959,4.47206 6.87428,9.89782 0.45892,2.11973 0.5203,3.03722 0.51381,7.68043 -0.009,6.75805 0.0731,6.14404 -5.35154,39.77775 -1.39314,8.63761 -2.75989,17.12334 -3.03723,18.85717 l -0.50427,3.15242 h -1.56488 c -1.04949,0 -1.595469,-0.0944 -1.657784,-0.28659 z"
     id="path4572"
     inkscape:connector-curvature="0" /><path
     style="fill:#000000;fill-opacity:1;stroke:#000000;stroke-width:0.08665192;stroke-miterlimit:4;stroke-dasharray:none;stroke-opacity:1"
     d="m 122.15413,644.30135 c -1.04573,-0.46236 -1.69119,-0.87778 -1.64724,-1.06018 0.12555,-0.52116 2.77773,-5.03538 4.56855,-7.77607 3.26304,-4.99378 6.12798,-8.38188 9.67214,-11.4384 4.57772,-3.94786 7.8317,-8.32465 10.75854,-14.47089 3.43652,-7.21654 3.83411,-11.75103 1.44156,-16.44084 -0.82889,-1.62473 -2.89775,-3.64687 -4.5769,-4.4735 -1.41971,-0.69893 -1.67587,-0.74838 -3.81926,-0.73727 -3.55661,0.0184 -5.76802,1.11099 -6.8671,3.39267 -0.49384,1.02522 -0.60025,1.69416 -0.8078,5.07828 -0.25985,4.23646 -0.45244,5.23676 -1.28644,6.6812 -0.89146,1.54395 -3.68433,3.06263 -5.63225,3.06263 -1.79456,0 -5.54387,-1.36427 -7.181,-2.61297 -0.94024,-0.71715 -1.94081,-2.59752 -2.17691,-4.09103 -0.67269,-4.2554 1.8622,-8.65176 6.9502,-12.05404 2.64452,-1.76836 4.93675,-2.79626 7.87005,-3.52917 2.85829,-0.71417 8.10577,-0.70496 11.50611,0.0202 12.32124,2.62761 20.24144,9.28017 22.88589,19.22297 0.84489,3.17674 0.89047,7.63554 0.1037,10.14323 -1.02874,3.27881 -2.71028,5.92984 -5.44625,8.58623 -3.31077,3.21447 -7.03216,5.39216 -14.07674,8.23745 -5.62005,2.26994 -7.43319,3.11069 -9.9396,4.60897 -4.11047,2.45718 -7.05274,5.21058 -9.49874,8.88901 -0.56851,0.85496 -1.04431,1.54712 -1.05733,1.53813 -0.0131,-0.009 -0.79746,-0.35847 -1.74318,-0.7766 z"
     id="path4570"
     inkscape:connector-curvature="0" /><path
     style="fill:#000000;fill-opacity:1;stroke:#000000;stroke-width:0.08665192;stroke-miterlimit:4;stroke-dasharray:none;stroke-opacity:1"
     d="m 77.912151,642.94484 c -0.689978,-1.02449 -2.185942,-2.79626 -3.324365,-3.93727 -3.561587,-3.56967 -7.688201,-5.95371 -16.055123,-9.27542 -4.476521,-1.7772 -7.383002,-3.21525 -10.010947,-4.95314 -2.126355,-1.40617 -6.484414,-5.75382 -7.494608,-7.47668 -2.300506,-3.92346 -2.997224,-7.86347 -2.205384,-12.4716 1.874048,-10.90602 10.237943,-18.51857 23.274085,-21.18331 7.992988,-1.63385 14.678285,-0.20283 20.892853,4.47222 2.837678,2.1347 4.626255,4.60192 5.349751,7.37962 1.019274,3.91328 -0.226951,6.86911 -3.673102,8.71189 -4.040043,2.16036 -7.472736,2.10638 -10.051824,-0.15808 -1.690704,-1.48446 -2.081626,-2.80617 -2.421468,-8.18671 -0.134648,-2.13178 -0.371916,-4.04571 -0.556246,-4.48688 -0.529996,-1.26844 -1.657162,-2.34836 -3.181165,-3.0478 -1.292903,-0.59338 -1.684009,-0.66089 -3.850394,-0.66456 -2.263755,-0.004 -2.504462,0.0418 -3.933916,0.74508 -2.812275,1.38375 -5.068923,4.48011 -5.803401,7.96295 -0.577201,2.73706 -0.395118,4.55721 0.837121,8.36823 2.080777,6.43541 6.370171,13.20768 11.133619,17.57829 5.492882,5.03985 7.848665,7.76817 11.354379,13.14987 1.570751,2.41128 4.528267,7.44281 4.528267,7.70378 0,0.0605 -0.593227,0.37358 -1.318283,0.69564 -2.39501,1.06384 -2.096253,1.14313 -3.489849,-0.92612 z"
     id="path826"
     inkscape:connector-curvature="0" /></g></svg>